<svg xmlns="http://www.w3.org/2000/svg" viewBox="0 0 64 64">
  <defs>
    <linearGradient id="bg" x1="0" y1="0" x2="1" y2="1">
      <stop offset="0%" stop-color="#2a8f6d"/>
      <stop offset="100%" stop-color="#14513d"/>
    </linearGradient>
  </defs>
  <rect width="64" height="64" rx="16" fill="url(#bg)"/>
  <path d="M18 20c0-2.2 1.8-4 4-4h17c4.4 0 8 3.6 8 8v20c0 2.2-1.8 4-4 4H26c-4.4 0-8-3.6-8-8V20z" fill="#fff8ef"/>
  <path d="M24 20h15c2.2 0 4 1.8 4 4v17H28c-2.2 0-4-1.8-4-4V20z" fill="#dcefe7"/>
  <path d="M21 27h16" stroke="#14513d" stroke-width="3" stroke-linecap="round"/>
  <path d="M21 33h13" stroke="#14513d" stroke-width="3" stroke-linecap="round"/>
  <path d="M21 39h10" stroke="#14513d" stroke-width="3" stroke-linecap="round"/>
  <path d="M45 16c-5.2 0-9 3.8-9 9 0 4.6 3.6 8.3 8.1 8.9l.9 6.1 3.2-5.4c4.2-1.2 7.1-4.9 7.1-9.6 0-5.2-4-9-9.3-9z" fill="#f1c04d"/>
</svg>
